<svg id="Capa_1" enable-background="new 0 0 512 512" height="512" viewBox="0 0 512 512" width="512" xmlns="http://www.w3.org/2000/svg" xmlns:xlink="http://www.w3.org/1999/xlink"><linearGradient id="SVGID_1_" gradientUnits="userSpaceOnUse" x1="256" x2="256" y1="512" y2="0"><stop offset="0" stop-color="#addcff"/><stop offset=".5028" stop-color="#eaf6ff"/><stop offset="1" stop-color="#eaf6ff"/></linearGradient><linearGradient id="SVGID_2_" gradientUnits="userSpaceOnUse" x1="256" x2="256" y1="407" y2="105"><stop offset="0" stop-color="#00c0ff"/><stop offset="1" stop-color="#5558ff"/></linearGradient><g><circle cx="256" cy="256" fill="url(#SVGID_1_)" r="256"/></g><g><g><path d="m344.806 265.064c-4.779-.98-9.498 2.117-10.47 6.931-7.555 37.047-40.5 63.946-78.336 63.946s-70.781-26.899-78.336-63.946c-.972-4.814-5.682-7.919-10.47-6.931-4.814.98-7.911 5.664-6.931 10.47 8.619 42.341 44.453 73.458 86.854 77.388v36.313h-26.647c-4.91 0-8.882 3.973-8.882 8.882s3.973 8.882 8.882 8.882h71.059c4.91 0 8.882-3.973 8.882-8.882s-3.973-8.882-8.882-8.882h-26.647v-36.313c42.402-3.929 78.236-35.047 86.854-77.388.981-4.805-2.116-9.489-6.93-10.47zm-88.806 53.112c34.28 0 62.177-27.896 62.177-62.176v-8.882h-26.647c-4.909 0-8.882-3.973-8.882-8.882s3.973-8.882 8.882-8.882h26.647v-17.765h-26.647c-4.909 0-8.882-3.973-8.882-8.882 0-4.91 3.973-8.883 8.882-8.883h26.647v-17.765h-26.647c-4.909 0-8.882-3.973-8.882-8.882s3.973-8.882 8.882-8.882h25.75c-4.358-30.053-30.041-53.295-61.28-53.295s-56.922 23.242-61.279 53.294h25.75c4.909 0 8.882 3.973 8.882 8.882s-3.973 8.882-8.882 8.882h-26.647v17.765h26.647c4.909 0 8.882 3.973 8.882 8.883 0 4.909-3.973 8.882-8.882 8.882h-26.647v17.765h26.647c4.909 0 8.882 3.973 8.882 8.882s-3.973 8.882-8.882 8.882h-26.647v8.883c-.001 34.28 27.896 62.176 62.176 62.176zm-8.882-151c0-4.91 3.973-8.882 8.882-8.882s8.882 3.973 8.882 8.882v71.059c0 4.91-3.973 8.882-8.882 8.882s-8.882-3.973-8.882-8.882z" fill="url(#SVGID_2_)"/></g></g></svg>